<svg class="svg-icon" style="width: 1em; height: 1em;vertical-align: middle;fill: currentColor;overflow: hidden;" viewBox="0 0 1024 1024" version="1.1" xmlns="http://www.w3.org/2000/svg"><path d="M128 865.448a381.336 94.504 0 1 0 762.672 0 381.336 94.504 0 1 0-762.672 0Z" fill="#B8CBCD" /><path d="M635.976 135.28c-12.048-12.824-36.304-23.328-53.904-23.328H272c-17.6 0-32 14.4-32 32v671.152c0 17.6 14.4 32.024 32 32.048l496 0.76c17.6 0.024 32-14.352 32-31.952v-474.016c0-17.6-9.856-42.504-21.904-55.328l-142.12-151.336z" fill="#F6E89A" /><path d="M784 352h-184a16 16 0 0 1-16-16v-200a16 16 0 0 1 32 0v184h168a16 16 0 0 1 0 32z" fill="#8D4520" /><path d="M392 639.952l123.488 120 124.512-120h-80v-208h-88v208z" fill="#FFFFFF" /><path d="M515.488 775.952a15.92 15.92 0 0 1-11.144-4.52l-123.496-120a16.008 16.008 0 0 1 11.152-27.48h64v-192a16 16 0 0 1 16-16h88a16 16 0 0 1 16 16v192h64c6.52 0 12.4 3.96 14.832 10.016a15.976 15.976 0 0 1-3.736 17.504l-124.504 120c-3.096 2.984-7.104 4.48-11.104 4.48z m-84.072-120l84.12 81.736 84.808-81.736H560a16 16 0 0 1-16-16v-192h-56v192a16 16 0 0 1-16 16h-40.584z" fill="#8D4520" /><path d="M768.04 871.952h-0.072l-496-0.752c-30.856-0.048-55.968-25.192-55.968-56.048V144c0-30.88 25.12-56 56-56h310.072c24.168 0 54.864 13.288 71.4 30.896l142.12 151.336c16.192 17.256 28.408 48.104 28.408 71.76V816c0 14.928-5.84 28.984-16.44 39.568a55.576 55.576 0 0 1-39.52 16.384zM768 824c2.816 0 4.768-1.52 5.648-2.4a7.92 7.92 0 0 0 2.352-5.6v-474.008c0-11.56-7.488-30.472-15.4-38.904l-142.12-151.336c-7.464-7.952-23.568-15.8-34.48-15.8h-312c-4.336 0-8 3.712-8 8.048v671.152c0 4.352 3.64 8.84 8 8.848h496z" fill="#8D4520" /></svg>