<svg class="svg-icon" style="width: 1em; height: 1em;vertical-align: middle;fill: currentColor;overflow: hidden;" viewBox="0 0 1024 1024" version="1.1" xmlns="http://www.w3.org/2000/svg"><path d="M128 800l20.6 0 38.4-62.4c41-65.4 89.8-125.6 151.6-153.2 48.8-21.8 93.4-37.8 173.4-40L512 704l384-256L512 192l0 160.6c-126 5.6-216.2 41.4-286.6 112.4-104.6 105.4-97.4 238-97.4 271.4C128.2 754.2 128 779.8 128 800zM544 384l0-129.4 296.2 193.6L544 641.6 544 512c-182 0-289.2 49.2-384.4 210.8C159.6 722.8 142 384 544 384z"  /></svg>