<svg class="svg-icon" style="width: 1em; height: 1em;vertical-align: middle;fill: currentColor;overflow: hidden;" viewBox="0 0 1024 1024" version="1.1" xmlns="http://www.w3.org/2000/svg"><path d="M895.8 736.4c0-33.6 7.2-166.2-97.4-271.4-70.4-70.8-160.6-106.8-286.6-112.4L511.8 192 128 448l384 256 0-159.6c80 2.2 124.8 18.2 173.4 40 61.8 27.6 110.6 88 151.6 153.2l38.4 62.4L896 800C896 779.8 895.8 754.2 895.8 736.4zM864.4 722.8C769.2 561.2 662 512 480 512l0 129.6L183.8 448.2 480 254.6 480 384C882 384 864.4 722.8 864.4 722.8z"  /></svg>