<svg class="svg-icon" style="width: 1em; height: 1em;vertical-align: middle;fill: currentColor;overflow: hidden;" viewBox="0 0 1024 1024" version="1.1" xmlns="http://www.w3.org/2000/svg"><path d="M125.328 873.496a381.336 94.504 0 1 0 762.672 0 381.336 94.504 0 1 0-762.672 0Z" fill="#B8CBCD" /><path d="M635.984 151.328c-12.048-12.824-36.304-23.328-53.904-23.328h-310.072c-17.6 0-32 14.4-32 32v671.152c0 17.6 14.4 32.024 32 32.048l496 0.76c17.6 0.024 32-14.352 32-31.952v-474.016c0-17.6-9.856-42.504-21.904-55.328l-142.12-151.336z" fill="#B2EDA6" /><path d="M784 360h-184a16 16 0 0 1-16-16v-200a16 16 0 1 1 32 0v184h168a16 16 0 0 1 0 32z" fill="#3C663E" /><path d="M640.008 552l-124.512-124.24-123.488 124.24h80v208h88v-208z" fill="#FFFFFF" /><path d="M560.008 776h-88a16 16 0 0 1-16-16v-192h-64a16.016 16.016 0 0 1-11.352-27.28l123.496-124.232a16 16 0 0 1 11.32-4.72h0.032a16 16 0 0 1 11.304 4.672l124.512 124.232a16 16 0 0 1-11.304 27.328H576v192a16 16 0 0 1-15.992 16z m-72.008-32h56.008v-192a16 16 0 0 1 16-16h41.312l-85.776-85.584L430.472 536h41.536a16 16 0 0 1 15.992 16v192z" fill="#3C663E" /><path d="M768.048 887.952h-0.072l-496-0.752c-30.856-0.048-55.968-25.192-55.968-56.048V160c0-30.88 25.12-56 56-56h310.072c24.168 0 54.864 13.288 71.4 30.896l142.112 151.336c16.192 17.256 28.408 48.104 28.408 71.76V832c0 14.928-5.84 28.984-16.44 39.568a55.544 55.544 0 0 1-39.512 16.384z m-0.04-47.952c2.816 0 4.768-1.52 5.648-2.4a7.92 7.92 0 0 0 2.352-5.6v-474.008c0-11.56-7.488-30.472-15.4-38.904l-142.12-151.336c-7.464-7.952-23.568-15.8-34.48-15.8h-312A8.16 8.16 0 0 0 264 160l0.008 671.152c0 4.352 3.64 8.84 8 8.848h496z" fill="#3C663E" /></svg>